<mxfile host="Electron" modified="2025-03-13T16:56:17.523Z" agent="Mozilla/5.0 (Windows NT 10.0; Win64; x64) AppleWebKit/537.36 (KHTML, like Gecko) draw.io/24.2.5 Chrome/120.0.6099.109 Electron/28.1.0 Safari/537.36" etag="nRzhmShp-w8PSshooW53" version="24.2.5" type="device">
  <diagram name="Page-1" id="ZDWTbA_Sev17Ivu9E_Sn">
    <mxGraphModel dx="1728" dy="997" grid="1" gridSize="10" guides="1" tooltips="1" connect="1" arrows="1" fold="1" page="1" pageScale="1" pageWidth="1600" pageHeight="900" math="0" shadow="0">
      <root>
        <mxCell id="0" />
        <mxCell id="1" parent="0" />
        <mxCell id="iujVMbT7PaKx_jRZkrUf-15" value="flow controller" style="rounded=1;whiteSpace=wrap;html=1;shadow=1;glass=0;shadowOpacity=50;shadowBlur=0;shadowOffsetX=1;shadowOffsetY=1;fontFamily=Times New Roman;fontSize=14;fillColor=#f5f5f5;fontColor=#333333;strokeColor=#666666;fontStyle=2" parent="1" vertex="1">
          <mxGeometry x="260" y="480" width="160" height="80" as="geometry" />
        </mxCell>
        <mxCell id="L-O1-DZjWUsWb9ukHB8H-19" style="edgeStyle=orthogonalEdgeStyle;rounded=1;orthogonalLoop=1;jettySize=auto;html=1;exitX=0.25;exitY=1;exitDx=0;exitDy=0;entryX=1;entryY=0.5;entryDx=0;entryDy=0;curved=0;" edge="1" parent="1" source="bBEdqhQP7ISBkMhVD89v-1" target="L-O1-DZjWUsWb9ukHB8H-18">
          <mxGeometry relative="1" as="geometry" />
        </mxCell>
        <mxCell id="bBEdqhQP7ISBkMhVD89v-1" value="width measurement&lt;div&gt;history and sampling&lt;/div&gt;" style="rounded=1;whiteSpace=wrap;html=1;shadow=1;glass=0;shadowOpacity=50;shadowBlur=0;shadowOffsetX=1;shadowOffsetY=1;fontFamily=Times New Roman;fontSize=14;" parent="1" vertex="1">
          <mxGeometry x="560" y="210" width="160" height="230" as="geometry" />
        </mxCell>
        <mxCell id="L-O1-DZjWUsWb9ukHB8H-13" style="edgeStyle=orthogonalEdgeStyle;rounded=1;orthogonalLoop=1;jettySize=auto;html=1;exitX=1;exitY=0.5;exitDx=0;exitDy=0;entryX=0.25;entryY=0;entryDx=0;entryDy=0;curved=0;" edge="1" parent="1" source="bBEdqhQP7ISBkMhVD89v-2" target="bBEdqhQP7ISBkMhVD89v-1">
          <mxGeometry relative="1" as="geometry" />
        </mxCell>
        <mxCell id="bBEdqhQP7ISBkMhVD89v-2" value="width measurement" style="rounded=1;whiteSpace=wrap;html=1;shadow=1;glass=0;shadowOpacity=50;shadowBlur=0;shadowOffsetX=1;shadowOffsetY=1;fontFamily=Times New Roman;fontSize=14;fillColor=#f5f5f5;fontColor=#333333;strokeColor=#666666;fontStyle=2" parent="1" vertex="1">
          <mxGeometry x="260" y="130" width="160" height="40" as="geometry" />
        </mxCell>
        <mxCell id="L-O1-DZjWUsWb9ukHB8H-12" style="edgeStyle=orthogonalEdgeStyle;rounded=1;orthogonalLoop=1;jettySize=auto;html=1;exitX=1;exitY=0.5;exitDx=0;exitDy=0;entryX=0.75;entryY=0;entryDx=0;entryDy=0;curved=0;" edge="1" parent="1" source="L-O1-DZjWUsWb9ukHB8H-1" target="bBEdqhQP7ISBkMhVD89v-1">
          <mxGeometry relative="1" as="geometry" />
        </mxCell>
        <mxCell id="L-O1-DZjWUsWb9ukHB8H-1" value="velocity measurement" style="rounded=1;whiteSpace=wrap;html=1;shadow=1;glass=0;shadowOpacity=50;shadowBlur=0;shadowOffsetX=1;shadowOffsetY=1;fontFamily=Times New Roman;fontSize=14;fillColor=#f5f5f5;fontColor=#333333;strokeColor=#666666;fontStyle=2" vertex="1" parent="1">
          <mxGeometry x="260" y="80" width="160" height="40" as="geometry" />
        </mxCell>
        <mxCell id="L-O1-DZjWUsWb9ukHB8H-4" style="edgeStyle=orthogonalEdgeStyle;rounded=0;orthogonalLoop=1;jettySize=auto;html=1;exitX=0.5;exitY=1;exitDx=0;exitDy=0;entryX=0.5;entryY=0;entryDx=0;entryDy=0;" edge="1" parent="1" source="L-O1-DZjWUsWb9ukHB8H-2" target="L-O1-DZjWUsWb9ukHB8H-3">
          <mxGeometry relative="1" as="geometry" />
        </mxCell>
        <mxCell id="L-O1-DZjWUsWb9ukHB8H-2" value="filament&lt;div&gt;sensor&lt;/div&gt;" style="rounded=1;whiteSpace=wrap;html=1;shadow=1;glass=0;shadowOpacity=50;shadowBlur=0;shadowOffsetX=1;shadowOffsetY=1;fontFamily=Times New Roman;fontSize=14;" vertex="1" parent="1">
          <mxGeometry x="60" y="80" width="160" height="90" as="geometry" />
        </mxCell>
        <mxCell id="L-O1-DZjWUsWb9ukHB8H-3" value="extruder&lt;div&gt;nozzle&lt;/div&gt;" style="rounded=1;whiteSpace=wrap;html=1;shadow=1;glass=0;shadowOpacity=50;shadowBlur=0;shadowOffsetX=1;shadowOffsetY=1;fontFamily=Times New Roman;fontSize=14;" vertex="1" parent="1">
          <mxGeometry x="60" y="480" width="160" height="80" as="geometry" />
        </mxCell>
        <mxCell id="L-O1-DZjWUsWb9ukHB8H-17" style="edgeStyle=orthogonalEdgeStyle;rounded=0;orthogonalLoop=1;jettySize=auto;html=1;exitX=0;exitY=0.75;exitDx=0;exitDy=0;entryX=1;entryY=0.75;entryDx=0;entryDy=0;" edge="1" parent="1" source="L-O1-DZjWUsWb9ukHB8H-16" target="iujVMbT7PaKx_jRZkrUf-15">
          <mxGeometry relative="1" as="geometry" />
        </mxCell>
        <mxCell id="L-O1-DZjWUsWb9ukHB8H-16" value="flow setpoint" style="rounded=1;whiteSpace=wrap;html=1;shadow=1;glass=0;shadowOpacity=50;shadowBlur=0;shadowOffsetX=1;shadowOffsetY=1;fontFamily=Times New Roman;fontSize=14;" vertex="1" parent="1">
          <mxGeometry x="640" y="480" width="160" height="80" as="geometry" />
        </mxCell>
        <mxCell id="L-O1-DZjWUsWb9ukHB8H-20" style="edgeStyle=orthogonalEdgeStyle;rounded=0;orthogonalLoop=1;jettySize=auto;html=1;exitX=0;exitY=0.5;exitDx=0;exitDy=0;entryX=1;entryY=0.25;entryDx=0;entryDy=0;" edge="1" parent="1" source="L-O1-DZjWUsWb9ukHB8H-18" target="iujVMbT7PaKx_jRZkrUf-15">
          <mxGeometry relative="1" as="geometry" />
        </mxCell>
        <mxCell id="L-O1-DZjWUsWb9ukHB8H-18" value="current width" style="rounded=1;whiteSpace=wrap;html=1;shadow=1;glass=0;shadowOpacity=50;shadowBlur=0;shadowOffsetX=1;shadowOffsetY=1;fontFamily=Times New Roman;fontSize=14;fillColor=#f5f5f5;fontColor=#333333;strokeColor=#666666;fontStyle=2" vertex="1" parent="1">
          <mxGeometry x="460" y="480" width="100" height="40" as="geometry" />
        </mxCell>
      </root>
    </mxGraphModel>
  </diagram>
</mxfile>
